<svg id="Layer_1" data-name="Layer 1" xmlns="http://www.w3.org/2000/svg" viewBox="0 0 1660 443.16"><defs><style>.cls-1{fill:#0c0b8a;}.cls-1,.cls-2,.cls-3{fill-rule:evenodd;}.cls-2,.cls-4{fill:#fff;}.cls-3{fill:#d3d5eb;}</style></defs><title>Logo untuk WEB</title><path class="cls-1" d="M236,330.15c0,15.71,1.73,34.33,5.51,49.39,1.84,7.34,3.6,14.32,6,21.4,2,5.9,4.3,11.59,6.69,17.3l3.19,7.12c.82,1.62,1.5,3,2.31,4.62,1.54,3.07,3,6,4.73,8.95,3,5,5.72,10.13,9.14,14.85,2.88,4,5.57,8.13,8.64,12l10.9,13.08c.53.66,1.1,1.06,1.66,1.71.37.42.4.56.79,1s.56.55.89.89c2.25,2.24,4.29,4.95,6.76,6.92,1.4,1.12,2.25,2.25,3.55,3.39l1.78,1.59c.67.68,1.16,1,1.79,1.58,4.35,4.35,18,14.68,23,18l12.65,8c2.83,1.72,6,3.16,8.8,4.88,1.49.91,3,1.55,4.59,2.35l9.32,4.36c1.59.74,3.3,1.42,4.89,2,3.22,1.28,6.49,2.67,9.89,3.79,1.66.55,3.33,1.2,5,1.73l16.19,4.62a223.55,223.55,0,0,0,23,4.36c4,.57,8.35,1.15,12.33,1.35,4.41.22,8.6.6,13.28.6h12.27c1,0,1.68-.21,3-.2,2.11,0,4.32-.35,6.34-.4,3-.07,9.34-.86,12.38-1.3,11.85-1.72,22.74-3.72,33.79-7.25,1.67-.53,3.45-1,5.15-1.59,6.72-2.24,13.26-4.83,19.82-7.53.72-.3,1.57-.64,2.34-1s1.64-.71,2.44-1.12l18-9.38a202.74,202.74,0,0,0,30.13-21c3.73-3.14,7.49-6.24,10.91-9.7.67-.67,1.15-1,1.79-1.58l5.15-5.16c.67-.66.93-1.14,1.58-1.79l4.86-5.25c.67-.66,1-1.15,1.59-1.78a23.71,23.71,0,0,0,1.57-1.8c.57-.7,1-1.24,1.62-1.95a168,168,0,0,0,11.83-15.52c3.63-5.52,7.38-10.94,10.58-16.78,4.06-7.44,8.17-14.9,11.29-22.81,3.29-8.32,6.81-16.58,9-25.31.25-1,.46-1.66.75-2.62l2.07-8.24a194.82,194.82,0,0,0,4.79-29.3L679,342c.29-1.92.27-12.7.28-15.91v-.52c0-1.21-.19-1.8-.21-2.9-.08-6.49-.8-12.78-1.4-19.22-.93-10-4.3-24.77-7-34.26a244.27,244.27,0,0,0-10-27.68c-.41-1-.72-1.52-1.1-2.46-2.21-5.45-6.47-13.16-9.23-18.13-4-7.26-8.77-14-13.46-20.83a170.45,170.45,0,0,0-12.22-15.33c-2.24-2.39-4.32-4.91-6.64-7.23a22,22,0,0,1-1.66-1.71l-7.76-7.7a12.35,12.35,0,0,1-1-.8c-2.39-2.3-4.74-4.26-7.24-6.44a170.19,170.19,0,0,0-17.57-13.35,215.94,215.94,0,0,0-23.58-14.09L543,125.74c-1-.38-1.53-.63-2.55-1s-1.47-.66-2.39-1-1.65-.6-2.45-.92c-1.63-.64-3.34-1.28-5.08-1.86-3.52-1.16-6.8-2.21-10.36-3.32l-11-2.9c-7.8-1.64-15.35-3.32-23.33-4.23-33.54-3.81-60.44-1.44-92.91,7.83-.95.27-1.8.52-2.74.83l-5.2,1.74a182.78,182.78,0,0,0-24.2,10.1l-4.63,2.31a210,210,0,0,0-33.71,21.4l-5.72,4.59c-.42.34-.56.45-1,.81l-8.22,7.24c-.66.67-1.14.93-1.79,1.58-4.27,4.29-8.81,8.44-12.69,13.08l-4.11,4.62c-.49.64-1.07,1.29-1.63,1.94a162.39,162.39,0,0,0-11.89,15.67l-2.74,4c-.46.69-.86,1.27-1.32,2s-.89,1.34-1.39,2.18c-.88,1.5-1.77,2.82-2.65,4.29-1.7,2.83-3.48,5.76-4.95,8.73L260,230.05c-.78,1.55-1.5,3-2.31,4.62-5.19,10.29-10.11,24.19-13.22,34.95a202.71,202.71,0,0,0-6.89,34.54c-.23,2.43-1.11,10-1.18,12.5C236.26,321.2,236,325.44,236,330.15Z" transform="translate(-236 -108.78)"/><path class="cls-2" d="M451.93,110.46a223.24,223.24,0,0,0-48.4,6.63A218.63,218.63,0,0,0,321,158l-3.84,3.1c-4.58,3.69-10.17,9-14.41,13.14-1.15,1.14-2.26,2.45-3.47,3.47-2,1.67-11.22,12.53-12.83,14.53-32.2,40.2-50.09,89.92-48.67,144,3.14,119.5,102.45,217.32,226.05,214,119.24-3.22,217-102.42,213.77-225.7-.79-30.06-8.23-62.56-21.23-88.82-8.65-17.47-17.28-31.31-29.49-46l-9.68-10.93c-.62-.63-1.13-1-1.71-1.65l-8.73-8.52a46.07,46.07,0,0,0-3.65-3.29l-7.4-6.28C555.53,127,505.88,108.91,451.93,110.46Z" transform="translate(-236 -108.78)"/><path class="cls-1" d="M450.2,113.66a216.11,216.11,0,0,0-135.89,54c-4.38,3.85-11.58,10.75-15.48,15-.56.62-1,1.22-1.57,1.81-2.36,2.33-7.19,8.33-9.31,10.9-11.48,14-23.19,33.87-30.33,51.14a217,217,0,0,0-16.68,91.35c3.91,117.27,102.12,213.37,224.45,209.21a216.36,216.36,0,0,0,112.53-36.23c3.73-2.49,8.39-5.74,11.89-8.53,3.17-2.52,8.36-6.56,11.17-9.24l13.87-13.29c9-9.83,16.49-18.65,23.94-30.18a215.65,215.65,0,0,0,35.58-126.82c-1.68-46.47-16.72-85.72-41.85-120.7-3.73-5.19-7.27-9.35-11.31-14.06-.33-.38-.45-.61-.8-1-1.19-1.25-2.15-2.34-3.19-3.55a213.47,213.47,0,0,0-15.42-15.11c-6.39-5.32-9.66-8.32-16.78-13.54-4.95-3.63-11-7.62-16.37-10.79a229.39,229.39,0,0,0-27.13-13.71A216.73,216.73,0,0,0,450.2,113.66Z" transform="translate(-236 -108.78)"/><path class="cls-2" d="M448.18,262a36.92,36.92,0,0,1-6.24,3.62c-.8-1.61-5.76-5.8-7.55-7.13a59.63,59.63,0,0,0-9.11-5.57c-19.2-9.45-41.5-7.69-61.43-1.26-1.93.62-9.57,3.27-10.64,4.19,1,2.38,5,6.35,6.85,8.56a54,54,0,0,0,5.18,5.33,102.48,102.48,0,0,0,8.54,7.32c8,5.91,17.73,11.07,30.92,11.07a62.38,62.38,0,0,0,27.66-6.4,31.17,31.17,0,0,1,3.27-1.7c.72,1.93,2.44,5.08,3.46,7.65,8.47,21.41,10.57,44.95,10.78,68.07a34.67,34.67,0,0,1-6.88-1.78c-.12-12-1.53-22.39-7.12-32.74a42,42,0,0,0-6.66-8.79,26.56,26.56,0,0,0-5.17-4.15,37,37,0,0,0-8.28-4c-18.18-6-38.41-2.91-56.27,2.51-2.56.78-8.15,3.15-9.82,3.53,1,3.52,12.47,19.92,14.55,22.71,1.38,1.85,2.56,3.35,4,5.13,2.78,3.49,5.7,6.68,8.74,9.9a49.56,49.56,0,0,0,4.72,4.6c3.9,3.14,5.79,5.08,10.46,8,10.44,6.46,29,14.07,41.53,14.4l1.82,42c2.54.18,5.14.1,7.69,0V376.93l7.11,1.09c.67,1,.29,42.86.24,50.28l7.4,0,.13-50.53,7.21-.87V417c1.51,0,6.66.24,7.7-.16L474.76,375c2.87-.39,5.26-.49,8.07-1.07a113.31,113.31,0,0,0,33.32-13.26,64.75,64.75,0,0,0,10.59-8c2.4-2.48,4.39-4.14,6.83-6.85a181.43,181.43,0,0,0,21.84-29.49c.8-1.32,3-4.73,3.36-6-2.39-.69-6.6-2.58-9.75-3.54-17.75-5.4-38.82-9-56.85-2.37a35.23,35.23,0,0,0-15.09,10.29,40.8,40.8,0,0,0-5.11,7.58c-5.11,9.46-6.82,20.63-6.43,31.67a47.41,47.41,0,0,1-7,1.8A227.75,227.75,0,0,1,462,314.12a140.61,140.61,0,0,1,7.3-26.4c.74-1.91,2.5-6.29,3.59-7.68a34.48,34.48,0,0,1,3.12,1.61,62.66,62.66,0,0,0,28,6.44c14.74,0,24.15-6.21,33.46-13.29,1-.77,1.84-1.6,2.8-2.36,3.63-2.86,13-12.94,14.93-16.62-3.09-2.41-17.65-6.33-22.09-7.3-20.52-4.49-42.22-2.64-59.12,10l-4,3.34c-1.07.9-3,3.26-3.85,3.73L460.23,262s5.81-6.2,7.64-8.66c7.64-10.26,14-22,12.33-36.34-1.55-13.22-8.58-23.64-17-32-2.35-2.33-6.2-6.05-8.94-7.5-1.64.56-7.74,6.14-8.94,7.3a39.14,39.14,0,0,0-3.89,4.23l-3.59,4.54c-11.42,16.24-13.07,31.84-3.83,49.75a64.56,64.56,0,0,0,8.16,12.06Z" transform="translate(-236 -108.78)"/><path class="cls-2" d="M362.79,448.15c15.8,2.82,22.51,4.57,38.19,1.95,8.09-1.35,18.21-1.79,26.26-.15,9.39,1.92,11.66,6.48,17.44,11.09,2,1.6,5.7,4.83,9.6,4.8,5.71,0,12.13-7.62,17.16-11.51a20.27,20.27,0,0,1,9.87-4.4c8.07-1.65,18.14-1.16,26.26.19,10.22,1.7,15.51,1.66,26,.2,2.76-.38,9.91-1.37,12-2.25l-4.42-15.43c-8.68,1.91-12.67,3.78-22.88,4-15,.27-23.54-9.48-45,1.2-4.53,2.26-13.32,7.82-19.07,7.84s-14.36-5.47-19-7.76c-6.81-3.39-12.85-5.55-21.86-4.94-8.19.55-14.85,3.78-23.23,3.66-8.64-.13-15.32-2-23-4Z" transform="translate(-236 -108.78)"/><path class="cls-1" d="M479.53,351.66c13.44-.57,28.53-6.93,38.13-12.46a130.78,130.78,0,0,0,15-10.17c1.22-.95,2.2-1.88,3.37-2.78.61-.47,1.08-1,1.67-1.5a10.61,10.61,0,0,0,1.61-1.56c1-1.13,2.17-2,3.15-3.19a25.41,25.41,0,0,0,2.8-3.53c-1.42-1.08-8.46-2-10.83-2.25-13.22-1.45-26.49,1.07-35.85,9.88a61.79,61.79,0,0,0-9.32,10.5,85.52,85.52,0,0,0-5.22,8.06C482.87,344.75,480.18,349.3,479.53,351.66Z" transform="translate(-236 -108.78)"/><path class="cls-1" d="M363.2,316.47c2.1,3.61,9.46,10.06,12.65,12.6,13.46,10.7,34.56,21.88,53.07,22.59-1-3.56-7.3-13.78-9.6-16.89-8.53-11.56-17-18.87-32.3-20.59a63.5,63.5,0,0,0-22.49,1.76Z" transform="translate(-236 -108.78)"/><path class="cls-3" d="M494.74,494A16.82,16.82,0,1,0,514,507.89,16.75,16.75,0,0,0,494.74,494Z" transform="translate(-236 -108.78)"/><path class="cls-3" d="M403.5,492a16.83,16.83,0,1,0,18.77,14.43A16.79,16.79,0,0,0,403.5,492Z" transform="translate(-236 -108.78)"/><path class="cls-1" d="M454.26,248.82c5.09-5.94,10.11-17.8,10.5-26.49A35.66,35.66,0,0,0,458.35,201c-.87-1.3-3.19-4.54-4.3-5.06-.75,1.12-2.53,3-4,5.12a38.19,38.19,0,0,0-3.33,6c-5.55,12.82-3,24.62,3.79,36.25A32.71,32.71,0,0,0,454.26,248.82Z" transform="translate(-236 -108.78)"/><path class="cls-3" d="M523.37,176.74l5.71,1.88a119.38,119.38,0,0,1,5.1-11.06c.62,1.21,2.39,12.86,2.83,15.29l5.75,2.33-2.25-14.67c13.33,3,20.05-12.09,7-19.55-2.3-1.31-6.91-3.58-10-4Z" transform="translate(-236 -108.78)"/><path class="cls-3" d="M352.12,502.26c2.43,1.64,2.77,2.77,6.82,4.48a16.45,16.45,0,0,0,9.64,1.17c5.36-1.22,8.3-7.85,5.52-12.17-.63-1-.91-.91-1.36-1.72,6.88.56,9.35-6.67,7.3-10.76-1.47-2.92-8.52-7.77-11.06-8.57-1.62,2.19-10.64,17.24-12.71,20.51C355.51,496.41,352.34,501.23,352.12,502.26Z" transform="translate(-236 -108.78)"/><path class="cls-3" d="M469,515.07H449.08v4.6h13.29c-.85,3.8-6.66,7.58-12.19,6.62-10.88-1.89-12.82-17.4-1.87-21.53a11.6,11.6,0,0,1,8.16.18c3.7,1.6,4.57,4.06,5.33,4.22h6c-1-3.66-4.61-6.93-7.37-8.55a17.26,17.26,0,0,0-13-1.48,16.83,16.83,0,1,0,21.56,16Z" transform="translate(-236 -108.78)"/><path class="cls-3" d="M521.22,486.73l14.16,28.17c1.36-.46,3.33-2.23,4.74-3l-5.43-10.55c1.07.29,9.7,4.92,11.61,5.94,1,.53,1.4,1.12,2.48.57a35.52,35.52,0,0,0,4.42-2.72l-12.4-6.8c1-1.15,1.17-.43,3-3.37,3.11-4.91,1.78-10.47-3.18-13.55C534.76,477.78,523.26,484.35,521.22,486.73Z" transform="translate(-236 -108.78)"/><path class="cls-3" d="M604.29,402.7l23.1,10.8c-4.3.8-28.81,2.86-30.22,3.62l-2.64,5.36,30.54,14.23,1.93-4.66-22.64-10.83,29.27-3c.43-.23,2.07-5.07,2.16-5.49L606.8,398Z" transform="translate(-236 -108.78)"/><path class="cls-3" d="M611.92,262.16l1.71,4.83,23.56-9.77L621.61,279c-1.76,2.42-2.32,2.49-1.67,4s1.19,3.11,1.81,4.46l31.07-13-2.12-4.58-23.19,9.51a25.13,25.13,0,0,1,2.47-3.56l14.34-19.36c.68-.9.73-.85.14-1.94a37.45,37.45,0,0,0-2.12-4C639.11,251.76,612.62,261.56,611.92,262.16Z" transform="translate(-236 -108.78)"/><path class="cls-3" d="M268.75,374.67l1,5.19,24.74-6.09c-.44.79-13.06,13.44-15.3,15.76l-4.78,4.74c-.65.67-1.21.82-1,2a39.81,39.81,0,0,0,1.29,5.09l32.67-8.07-1.47-4.82-24.33,5.84c.56-1.27,14.24-14.24,15.65-15.63,1.69-1.66,3.35-3.43,5.18-5.27L300.64,368Z" transform="translate(-236 -108.78)"/><path class="cls-1" d="M484.4,268.9c2.45,1.52,10,2.79,13.42,3.08a52.39,52.39,0,0,0,15.4-1,35.26,35.26,0,0,0,16.8-8.18c.72-.62,3.52-3.37,3.67-4.47-14.39-2-35.5-1.47-47.29,8.64-.44.37-.65.53-1.1.88C484.6,268.38,484.59,268.38,484.4,268.9Z" transform="translate(-236 -108.78)"/><path class="cls-1" d="M374.76,258.4c.91,2.58,5.87,6.39,8.5,8C391,271,401.44,272.73,410.6,272c4.18-.34,10.2-1.46,13.5-3.06-1.27-2-6.58-5.19-9-6.4-8-3.93-16.83-5-25.81-5.09C386.56,257.4,376.69,257.54,374.76,258.4Z" transform="translate(-236 -108.78)"/><path class="cls-3" d="M582.81,220.16c.94,1.35,2.33,2.59,3.34,3.9L597.49,221c.91,1.76,7.65,9.34,8.12,10.46-.87,1.66-5.6,8.32-6,9.32a18.29,18.29,0,0,0,3.65,3.59L622.4,213a31.15,31.15,0,0,0-3.31-3.46c-1.1-1.15-1.16-.58-4.91.57L588,218.46A51.33,51.33,0,0,0,582.81,220.16Z" transform="translate(-236 -108.78)"/><path class="cls-3" d="M619.71,349.85a40,40,0,0,1,4.81,3,45.63,45.63,0,0,0,4.89,3.06l-2.1,13.24-11.17,1.69-.25,5.07,36.25-6.53.4-5.87L636.42,354c-1-.6-15.31-9.3-16.11-9.3Z" transform="translate(-236 -108.78)"/><path class="cls-3" d="M440.2,161.65h5.49l0-13.67c4.08-.06,8.9-.25,11.8-2.33,2.65-1.9,3.82-6.16,3.43-10.5-.75-8.32-12.82-8.05-20.72-7.62Z" transform="translate(-236 -108.78)"/><path class="cls-1" d="M496,499.49a11.2,11.2,0,1,0,12.45,9.73A11.2,11.2,0,0,0,496,499.49Z" transform="translate(-236 -108.78)"/><path class="cls-3" d="M339.28,164.05a31.26,31.26,0,0,0,2.25,3.31L353,183.61c.84,1.17,1.79,2.16.79,4.1a7.87,7.87,0,0,1-2.82,2.73,8.16,8.16,0,0,1-4.19,1.34c-1.67,0-1.84-.7-3.16-2.37l-12.22-15.53c-.72-.93-1.76-2.34-2.42-3a41,41,0,0,0-4.6,3.33c.28.76,5,6.71,5.89,7.8,2.1,2.63,4,5.19,6.07,7.8,1,1.29,1.93,2.51,2.95,3.79,1.21,1.52,1.45,2.45,3.79,3.15A12.47,12.47,0,0,0,354,194.65c2.19-1.56,5.17-4.33,5.38-8.39.13-2.51-1-3.52-2-5l-14.32-20.19A23.66,23.66,0,0,0,339.28,164.05Z" transform="translate(-236 -108.78)"/><path class="cls-1" d="M404.2,497.59a11.18,11.18,0,1,0,12.48,9.49A11.13,11.13,0,0,0,404.2,497.59Z" transform="translate(-236 -108.78)"/><path class="cls-3" d="M483.32,164.43l16.27,3.93,1.52-4.81-11.55-2.72c.07-1.26,1.68-8.55,2.18-9.24L503.38,154c.23-1.26,1.27-4,.82-4.81-1.54-.93-9.49-1.41-11.46-2.4l1.77-9.52,12.64,2.93,1.22-4.25-17.92-4.7Z" transform="translate(-236 -108.78)"/><path class="cls-3" d="M266.19,322.62v-4.69c-12.1,1.66-11.31,15.9-3,18.55a11.72,11.72,0,0,0,9.12-1.34c5-3.44,3.24-12.51,10.49-12.18a5.45,5.45,0,0,1,5.51,5.79c-.19,3.43-2.9,4.64-6.27,5l0,4.7c6.53.06,12.71-4.23,11.64-11-1.73-11-15.69-13.92-21.64-.95-.71,1.54-.65,3-1.78,4-2.13,1.78-7,1.77-8-.75-.73-1.89.3-4.64,2.07-6C264.76,323.37,265.78,323.21,266.19,322.62Z" transform="translate(-236 -108.78)"/><path class="cls-3" d="M260.6,286.09l4.13,1.13,2.25-6.55,28.26,9,1.47-4.87-28-9,1.85-6.31-4.42-1.29c-.67,2.87-2,6.13-2.84,9C262.81,278.87,260.64,284.79,260.6,286.09Z" transform="translate(-236 -108.78)"/><path class="cls-3" d="M368.28,143.62l1.34,4.06,6.72-1.77,4.37,14.2c.6,2.06,3.73,13.06,4.38,14l4.7-1.4-8.49-28.21,6.61-1.84-1.4-4.24C385.37,138.5,369.64,143,368.28,143.62Z" transform="translate(-236 -108.78)"/><path class="cls-3" d="M579.21,173c.55.82,3.78,3.5,4.94,4.76l-9.54,11.09c-2.66,3.08-7.44,8.22-9.73,11.11a17.64,17.64,0,0,0,3.83,3.38,7.26,7.26,0,0,1,1.16-1.38l3.58-4.15c2.56-3,7.62-8.42,9.63-11,.76-1,1.58-1.75,2.43-2.72a34.73,34.73,0,0,0,2.32-2.8c1.49.82,4,3.84,5,4.37a18.35,18.35,0,0,0,2.83-3.63c-1.19-.74-9.8-8.88-12-10.74a21.11,21.11,0,0,0-1.75-1.58A23.22,23.22,0,0,0,579.21,173Z" transform="translate(-236 -108.78)"/><path class="cls-3" d="M292.69,206.25a15.25,15.25,0,0,0,3.19,3.18c.88-.92,1.56-1.37,2.46-2.27a26.78,26.78,0,0,1,2.67-2.23c1.66,1.76,3.19,3.46,5,5.29,1.95,2,8.53,9.48,10,10.82,1.07,1,1.53,1.75,2.46,2.69s1.68,1.71,2.55,2.75l3.73-3.37-19.85-21.6,4.11-3.77-3.14-3.25Z" transform="translate(-236 -108.78)"/><path class="cls-1" d="M446,274.23a45.75,45.75,0,0,0,2.26,4.88c.8,1.66,1.53,3.22,2.27,4.86a54.54,54.54,0,0,1,3.68,10.4c.56-1.17,1.17-3.82,1.68-5.26,1.29-3.66,6.43-14,6.54-14.86l-8.12-6.6a37.61,37.61,0,0,0-4.16,3.24c-.81.66-1.35,1.11-2.08,1.69A19.57,19.57,0,0,1,446,274.23Z" transform="translate(-236 -108.78)"/><polygon class="cls-3" points="56.74 326.23 59.28 330.59 88.61 313.61 85.83 309.39 56.74 326.23"/><polygon class="cls-3" points="385.36 207.81 385.82 212.83 419.26 209.8 418.95 204.74 385.36 207.81"/><path class="cls-3" d="M275.53,236.92l28.22,18.43a28.33,28.33,0,0,0,2.69-4.34l-14.1-9.1c-2.39-1.54-4.64-3-7-4.53-1.22-.81-6.34-4.3-7.2-4.57Z" transform="translate(-236 -108.78)"/><path class="cls-1" d="M536,163.44c2.32,1.91,8,3.89,11.17,1.76,3.85-2.59,2.89-7-.06-9.36a24.21,24.21,0,0,0-6.83-3.1Z" transform="translate(-236 -108.78)"/><path class="cls-1" d="M445.28,143.86c5.78.05,10.89.58,11.15-5.77s-5.19-6-11.15-6.06Z" transform="translate(-236 -108.78)"/><path class="cls-1" d="M527.16,488.12l5.64,9.47c3.75-1,9.9-5.3,7.3-10.44a5.71,5.71,0,0,0-6.75-2.43,27.75,27.75,0,0,0-5.85,3.09A1.53,1.53,0,0,0,527.16,488.12Z" transform="translate(-236 -108.78)"/><path class="cls-1" d="M358.44,501.86c1.77,1,2.93,2.36,6,2.41a5.93,5.93,0,0,0,5.58-2.85,5,5,0,0,0-.58-6.21,14.76,14.76,0,0,0-5.06-3.32c-.82,1.55-2,3.24-3,4.85C360.82,497.68,358.64,500.91,358.44,501.86Z" transform="translate(-236 -108.78)"/><path class="cls-1" d="M601.6,219.22a10.82,10.82,0,0,0,1.54,2l5.17,6.08c.59-.44,3.13-5,3.71-6s1.22-2.1,1.83-3.12a24.45,24.45,0,0,0,1.79-3.12Z" transform="translate(-236 -108.78)"/><path class="cls-1" d="M632.12,368.39,646,365.7a15.46,15.46,0,0,0-3-2c-3-1.8-6.5-4.11-9.42-5.7Z" transform="translate(-236 -108.78)"/><path class="cls-1" d="M366.07,488.51c1.17,1.57,6.71,4.29,9,.3a3.88,3.88,0,0,0-.39-5,11,11,0,0,0-4.16-2.76,26.64,26.64,0,0,1-2.22,3.76C367.58,486.07,366.67,487.29,366.07,488.51Z" transform="translate(-236 -108.78)"/><path class="cls-4" d="M818.65,343.62c0,3.65-1.79,4.23-4.38,4.23H795.75c-2.79-.19-4.38-.76-4.38-4.23V216.2c.2-2.69.59-4,4.18-4h18.91c3,0,4.18.58,4.18,4Z" transform="translate(-236 -108.78)"/><path class="cls-4" d="M849.53,219.47c0-3.65.4-4.8,3.18-5.76,4.38-1.54,21.31-3.08,34.86-3.08,12.34,0,56.36,0,56.36,40.36,0,29.79-25.49,41.9-55.76,41.9-4.18,0-6.37-.2-11.55-.58v51.5c0,3.65-1.4,4-4.38,4H853.91c-3.79-.19-4.38-1.15-4.38-4.23Zm27.08,57.66a49.58,49.58,0,0,0,8.17.58c13.74,0,31.47-3.27,31.47-26.53,0-24.59-21.51-25.56-30.28-25.56a51.65,51.65,0,0,0-9.36.78Z" transform="translate(-236 -108.78)"/><path class="cls-4" d="M961.87,219.85c0-4,.79-5.38,4-6.52,4.78-1.54,20.31-2.7,31.86-2.7,14.73,0,29.27,1.35,39.63,7.5,10.56,6.14,15.13,15.56,15.13,25.75,0,17.49-13.74,26.13-21.3,29.79-1.6.57-3,1.15-4.58,1.72,1.6.39,3,.58,4.38,1,20.51,5.18,29.08,20,29.08,35.16,0,16-9.56,26.53-22.5,32.09-9.16,3.65-20.92,5.58-39.83,5.58-14.94,0-28.09-1.54-31.47-2.5-3.59-1-4.38-2.11-4.38-7.12Zm26.49,50.55a111.88,111.88,0,0,0,13.94-.19c21.91-2.31,23.51-17.87,23.51-22.49,0-22.1-22.11-22.1-26.69-22.1a70,70,0,0,0-10.76.78Zm0,62.27a104.78,104.78,0,0,0,12.94.78c18.33,0,31.08-6.93,31.08-23.64,0-26.53-27.49-26.53-35.65-26.53-3.59,0-5.58.19-8.37.38Z" transform="translate(-236 -108.78)"/><path class="cls-4" d="M1221.18,307.49c-.21,7.88-.21,15.95-5.77,24.59-8.18,13.26-22.5,18.64-40.64,18.64-29.07,0-38.84-14.42-41.83-19.79-5-8.65-5.37-18.64-5.37-26.13V215.44c0-3.08.79-3.46,3.58-3.46h12.55c3.18,0,3.8.19,3.8,3.46v86.1c0,9.23.19,35,29.05,35,9.77,0,19.32-3.46,24.69-11.34,4.38-6.54,4.38-12.31,4.38-19.8V215.63c0-2.69.62-3.65,3.19-3.65,3.4,0,9.56,0,10.16.19,1.59.19,2.19,1,2.19,3.46Z" transform="translate(-236 -108.78)"/><path class="cls-4" d="M1324.36,344c0,1.73-.2,3.46-2.39,3.85h-11c-3.18,0-4.37-.38-4.37-3.85V279.44c0-9,0-23.45-23.31-23.45-21.31,0-21.51,12.3-21.51,17.1V344c0,3.46-1.4,3.85-4.18,3.85h-9.74c-2.8.19-3.8-.38-3.8-3.65V266.75c0-7.3,1.19-10.76,8-14,13.33-6.72,32.06-6.72,34.24-6.72,37.84,0,38,20.38,38,31.71Z" transform="translate(-236 -108.78)"/><path class="cls-4" d="M1356.84,231.2c-6.77,0-10.75-4.61-10.75-10,0-6,4.58-10.19,10.94-10.19a10.22,10.22,0,0,1,10.56,9.6,10.43,10.43,0,0,1-10.76,10.57m8.76,113.2c0,3.27-1,3.46-4,3.46h-10.75c-3,0-3-.78-3-3.46V252c0-2.5,0-3.64,3.37-3.64h10.37c3.19,0,4,.56,4,3.64Z" transform="translate(-236 -108.78)"/><path class="cls-4" d="M1423.75,324.21,1449.66,251c.58-1.92,1-2.5,2.37-2.69h10c1,0,2.58,0,2.58,1.92,0,.38,0,.76-.78,3.07L1428.94,345c-1.2,2.69-1.39,2.88-3.8,2.88h-7.76c-1.6-.19-2-.76-3-3.07l-36.06-91.48a8,8,0,0,1-.78-2.69c0-2.31,2-2.31,2.79-2.31h12.14c3,0,3.18.38,4.39,3.07Z" transform="translate(-236 -108.78)"/><path class="cls-4" d="M1486.11,295c1.57,26.9,15.71,39.39,30.85,39.39,11.95,0,20.92-6.53,27.5-16.91,2.77-4.61,3.37-5.58,5.76-5.58,1.2,0,4,.58,4,4.62,0,5-8.76,33.63-39.83,33.63-11.95,0-28.09-4.62-37-22.3-5.17-9.6-6.36-20.57-6.36-29.6,0-13.83,2.8-23.83,6.77-30.94,2.19-4,12.34-21.33,36.86-21.33,31.45,0,38.23,26.33,38.23,34.21,0,5.38-3.38,5.77-5.78,6.15Zm47.58-16.53c-1.18-12.3-9.94-21.52-21.31-21.52-16.12,0-24.3,11.92-26.27,28.63Z" transform="translate(-236 -108.78)"/><path class="cls-4" d="M1589.67,344.59c-.2,3.07-1.18,3.26-3.59,3.26h-10.15c-2.79,0-4-.19-4-3.26V264.25c0-6.72.78-9,5.16-11.53,6-3.46,18.74-6.72,31.67-6.72,9.75,0,20.52,2.1,20.52,11.14a8,8,0,0,1-8.18,8.27c-3.58,0-5-1.54-8.35-5.2-2.61-2.5-5.2-4.8-11-4.8-11.76,0-11.95,8.46-12.15,13.46Z" transform="translate(-236 -108.78)"/><path class="cls-4" d="M1677.31,291.73c10.36,5,24.3,11.53,24.3,29.6a28.54,28.54,0,0,1-9.36,21.33c-8.36,7.11-19.12,7.5-24.1,7.5-26.69,0-34.45-16.15-34.45-21.73a8,8,0,0,1,8.16-8.27c4.38,0,6.78,3.27,8,5,.62,1,1.4,2.31,2.6,4.42,2.79,4.23,7,9.6,17.12,9.6,10.56,0,15.34-7.49,15.34-14.61,0-11.72-10.35-16.33-19.11-20.37-16.33-7.5-30.08-13.83-30.08-31.52,0-13.64,10-26.71,31.67-26.71,22.7,0,31.06,13.26,31.06,19.41a7,7,0,0,1-7.37,7.3c-5.17,0-7-3.26-8.76-6.53-2.19-3.64-5.77-10.38-15.33-10.38-10.76,0-14.94,8.46-14.94,14,0,10.76,9.56,15,16.73,18.06Z" transform="translate(-236 -108.78)"/><path class="cls-4" d="M1730.1,231.2c-6.77,0-10.75-4.61-10.75-10,0-6,4.58-10.19,11-10.19a10.22,10.22,0,0,1,10.56,9.6,10.43,10.43,0,0,1-10.77,10.57m8.76,113.2c0,3.27-1,3.46-4,3.46h-10.77c-3,0-3-.78-3-3.46V252c0-2.5,0-3.64,3.37-3.64h10.37c3.17,0,4,.56,4,3.64Z" transform="translate(-236 -108.78)"/><path class="cls-4" d="M1783.08,256.75v62.46c.2,8.07.2,10.19,2.39,13.84,2.19,4,6,6.72,11.95,6.72.8,0,4.38-.19,5.17-.19,3.59,0,4,2.69,4,3.85,0,5-11,6.34-15.53,6.34-9.58,0-16.73-3.65-20.92-8.85-4.58-5.95-4.78-12.29-4.78-18.25V256.75H1754.8c-2.59,0-3-.19-3-2.88,0-5,0-5.39,3-5.57h10.56V236.77c0-3.46.58-4.42,3-6.72l9.17-7.88c2-1.73,2.79-2.11,3.38-2.11,2,0,2.19,2.5,2.19,4.81v23.45h17.33c2.39,0,3.18.18,3.18,2.69,0,5.18,0,5.76-3,5.76Z" transform="translate(-236 -108.78)"/><path class="cls-4" d="M1854.38,361.49c-5.57,14.42-14.36,32.3-35.65,32.3-2.39,0-13.94,0-13.94-9a8.11,8.11,0,0,1,8.54-8.27c1.61,0,9,1.73,10.77,1.73,8.55,0,14.35-6.34,22.11-30.36l-38.63-94c-1-2.31-1.19-2.69-1.19-3.26,0-2.51,2.59-2.31,3.58-2.31h11.76c3.17,0,3.38.37,4.57,3.45l28.09,74,25.89-74c1-2.89,1.59-3.27,3.18-3.45h9.74c1.61,0,2.8.37,2.8,2.1,0,.58,0,1-1,3.46Z" transform="translate(-236 -108.78)"/><path class="cls-4" d="M1060.15,378a3.65,3.65,0,0,1,.26-1.62,1.82,1.82,0,0,1,1.14-.74,24,24,0,0,1,5.61-.83q4.21-.31,7.72-.31a51.8,51.8,0,0,1,8.91.75,22,22,0,0,1,7.5,2.67,13.38,13.38,0,0,1,4.74,5,13.53,13.53,0,0,1,1.58,6.41,12.58,12.58,0,0,1-2.85,8.33,19.74,19.74,0,0,1-6.72,5.26,14.63,14.63,0,0,1-2,.88,8.58,8.58,0,0,1,1.05.18,6.16,6.16,0,0,1,1,.26,17.81,17.81,0,0,1,10.09,5.92,16,16,0,0,1,3.51,10.39,14.22,14.22,0,0,1-3,9.48,17,17,0,0,1-7.5,5.18,34.51,34.51,0,0,1-8.47,1.93q-4,.35-8.12.35-4.3,0-8-.35a24.55,24.55,0,0,1-5-.79,1.73,1.73,0,0,1-1.14-.79,5.46,5.46,0,0,1-.26-2.1Zm8.51,24.22h1.66a12.84,12.84,0,0,0,1.49.09c1.41,0,2.81-.06,4.21-.18a18.51,18.51,0,0,0,6.54-1.62,11.34,11.34,0,0,0,3.95-3,9.28,9.28,0,0,0,1.8-3.43,13.08,13.08,0,0,0,.44-3.2,11,11,0,0,0-1.62-6.32,9.56,9.56,0,0,0-4-3.42,15.36,15.36,0,0,0-4.34-1.32,30.65,30.65,0,0,0-4-.26,44.53,44.53,0,0,0-6.23.44Zm0,29.66h.09a67,67,0,0,0,7.2.44q7.54,0,12.06-2.94t4.52-9.08a13.15,13.15,0,0,0-.92-5.22,13,13,0,0,0-8.64-7.5,37.56,37.56,0,0,0-8.6-.88q-1.75,0-4.39.09l-1.31.09Z" transform="translate(-236 -108.78)"/><path class="cls-4" d="M1147.1,422.87a24.19,24.19,0,0,1-3.9,7.72,19.72,19.72,0,0,1-6.32,5.4,17.33,17.33,0,0,1-8.38,2,18.32,18.32,0,0,1-8.56-2,18.88,18.88,0,0,1-6.4-5.35,24.12,24.12,0,0,1-3.9-7.63,29.85,29.85,0,0,1,0-17.68,24.35,24.35,0,0,1,4-7.67,19.17,19.17,0,0,1,6.36-5.31,18,18,0,0,1,8.38-1.93,17.27,17.27,0,0,1,8.69,2.15,19.38,19.38,0,0,1,6.27,5.66,25.9,25.9,0,0,1,3.73,7.63,28,28,0,0,1,0,17Zm-10.92-22.81q-3.55-4.7-8.29-4.7-5.18,0-8.29,4.91t-3.12,12.81q0,8.87,3.69,14.22t8.68,5.35q4.91,0,8.08-5t3.16-14.26Q1139.73,404.75,1136.18,400.06Z" transform="translate(-236 -108.78)"/><path class="cls-4" d="M1184.65,397l.09.09a19.69,19.69,0,0,1,2.11,4,17.44,17.44,0,0,1-.61,12.06,12.88,12.88,0,0,1-3.78,4.65,16.73,16.73,0,0,1-5.13,2.67,18,18,0,0,1-5.49.88,25.78,25.78,0,0,1-5-.61l-.35-.09q-3.51,3.25-3.51,5.53a2.45,2.45,0,0,0,2.11,2.5,36.7,36.7,0,0,0,6.84.83l9.39.53c1.58.12,3.05.29,4.43.53a17,17,0,0,1,4.3,1.41,9.6,9.6,0,0,1,3.77,3.2,9.19,9.19,0,0,1,1.54,5.48A12.38,12.38,0,0,1,1194,446a18.14,18.14,0,0,1-4.43,5.57,23.39,23.39,0,0,1-8,4.39,36.61,36.61,0,0,1-11.85,1.71,30.53,30.53,0,0,1-8.07-1,13.67,13.67,0,0,1-6.45-3.6,7.93,7.93,0,0,1-2.32-5.61,9.67,9.67,0,0,1,2.5-6.31,29.62,29.62,0,0,1,6.71-5.71h-.18a18,18,0,0,1-4.69-2,4.25,4.25,0,0,1-1.89-3.9,5.82,5.82,0,0,1,.79-2.77,15.53,15.53,0,0,1,1.93-2.76,24.55,24.55,0,0,1,2.28-2.33l2.63-2.32.18-.18a17.2,17.2,0,0,1-3.25-2.37,14.35,14.35,0,0,1-2.72-3.86,16.63,16.63,0,0,1-1.75-7.55,14.18,14.18,0,0,1,4.43-10.83,15.91,15.91,0,0,1,11.36-4.17,17.36,17.36,0,0,1,3.55.31,32,32,0,0,1,3.29.92,24.79,24.79,0,0,0,2.76,1,10.14,10.14,0,0,0,2.5.26,13,13,0,0,0,1.71-.18l4.25-.61q2.54-.44,2.72-.44.62,0,.88,1.05a7.39,7.39,0,0,1,.26,1.67c0,.41-.32.7-1,.88Zm-19,39.31a32.73,32.73,0,0,0-3.9,4.17,6.62,6.62,0,0,0-1.27,4.08,6.11,6.11,0,0,0,3.68,5.75,19.47,19.47,0,0,0,9,1.89,20.47,20.47,0,0,0,5.22-.7,21.35,21.35,0,0,0,5-2,11,11,0,0,0,3.6-3.07,6.34,6.34,0,0,0,1.32-3.82,4.78,4.78,0,0,0-.88-2.94,5.59,5.59,0,0,0-2.24-1.8,10.77,10.77,0,0,0-2.72-.83,27,27,0,0,0-2.85-.31l-2.72-.09c-1.52-.06-3.48-.14-5.88-.26l-5-.26Zm12.76-37.2a11.87,11.87,0,0,0-2.06-2.63l-.18-.18a7.69,7.69,0,0,0-4.91-1.67,8.83,8.83,0,0,0-6.1,2.33q-2.59,2.33-2.59,7.41,0,5.52,2.94,8.78a8.78,8.78,0,0,0,6.62,3.24,8.08,8.08,0,0,0,5.75-2.28q2.41-2.28,2.42-7.2a18.67,18.67,0,0,0-.27-3.16A14.86,14.86,0,0,0,1178.38,399.13Z" transform="translate(-236 -108.78)"/><path class="cls-4" d="M1234.85,422.87a24.19,24.19,0,0,1-3.9,7.72,19.72,19.72,0,0,1-6.32,5.4,17.33,17.33,0,0,1-8.38,2,18.32,18.32,0,0,1-8.56-2,18.88,18.88,0,0,1-6.4-5.35,24.12,24.12,0,0,1-3.9-7.63,29.85,29.85,0,0,1,0-17.68,24.35,24.35,0,0,1,4-7.67,19.17,19.17,0,0,1,6.36-5.31,18,18,0,0,1,8.38-1.93,17.27,17.27,0,0,1,8.69,2.15,19.38,19.38,0,0,1,6.27,5.66,25.9,25.9,0,0,1,3.73,7.63,28,28,0,0,1,0,17Zm-10.92-22.81q-3.55-4.7-8.29-4.7-5.18,0-8.29,4.91t-3.12,12.81q0,8.87,3.69,14.22t8.68,5.35q4.91,0,8.08-5t3.16-14.26Q1227.47,404.75,1223.92,400.06Z" transform="translate(-236 -108.78)"/><path class="cls-4" d="M1252,435.46a1.26,1.26,0,0,1-1.58,1.49H1246a2.56,2.56,0,0,1-1.41-.26c-.23-.18-.35-.58-.35-1.23V398.78a9.64,9.64,0,0,1,.44-3.43,4,4,0,0,1,1.84-1.84,22.64,22.64,0,0,1,6-2.15,34.51,34.51,0,0,1,7.94-.92,16,16,0,0,1,6.45,1.14,4,4,0,0,1,2.59,3.95,3.8,3.8,0,0,1-1,2.68,3.35,3.35,0,0,1-2.59,1.1,3,3,0,0,1-1.76-.48,11.88,11.88,0,0,1-1.93-1.89,9.8,9.8,0,0,0-2.11-1.67,5.77,5.77,0,0,0-2.72-.53,6.45,6.45,0,0,0-2.89.57,3.51,3.51,0,0,0-1.62,1.49,6.62,6.62,0,0,0-.66,1.89,11.66,11.66,0,0,0-.18,2.11v34.65Z" transform="translate(-236 -108.78)"/><path class="cls-4" d="M1304.51,435.19c0,.76-.12,1.25-.35,1.45a2.25,2.25,0,0,1-1.41.31h-5.26a1.9,1.9,0,0,1-1.27-.35,1.87,1.87,0,0,1-.4-1.41V376.76a2.06,2.06,0,0,1,.35-1.36,1.74,1.74,0,0,1,1.32-.4h5.26a2.26,2.26,0,0,1,1.36.31,1.57,1.57,0,0,1,.4,1.27Z" transform="translate(-236 -108.78)"/><path class="cls-4" d="M1350.75,435.19a2.88,2.88,0,0,1-.22,1.18,1,1,0,0,1-.83.57h-4.83a2.65,2.65,0,0,1-1.53-.31c-.26-.2-.4-.69-.4-1.45V405.72a28.34,28.34,0,0,0-.22-3.82,8.57,8.57,0,0,0-1.18-3.25,6.88,6.88,0,0,0-3.11-2.63,13.76,13.76,0,0,0-5.75-1,14,14,0,0,0-5.26.83,6.28,6.28,0,0,0-2.89,2.11,6.44,6.44,0,0,0-1.1,2.41,12.78,12.78,0,0,0-.22,2.46v32.38c0,.76-.13,1.25-.39,1.45a2.48,2.48,0,0,1-1.45.31h-4.3a1.36,1.36,0,0,1-1.67-1.67V399.92a9,9,0,0,1,.7-4,6,6,0,0,1,2.81-2.41,22.23,22.23,0,0,1,4.43-1.72,32.55,32.55,0,0,1,4.52-.92c1.41-.18,2.62-.29,3.64-.36s1.85-.09,2.5-.09a25,25,0,0,1,9.39,1.45,11.45,11.45,0,0,1,5.09,3.64,10.27,10.27,0,0,1,1.93,4.39,32.21,32.21,0,0,1,.35,5Z" transform="translate(-236 -108.78)"/><path class="cls-4" d="M1396.81,427.65a14.67,14.67,0,0,1-.22,2.77,5.37,5.37,0,0,1-1,2.15,8.47,8.47,0,0,1-3,2.54,21.28,21.28,0,0,1-4.3,1.71,28.7,28.7,0,0,1-4.6.92,37.7,37.7,0,0,1-4.3.26q-9.47,0-15-5.83t-5.57-16.54a32.06,32.06,0,0,1,1.32-9.12,25.9,25.9,0,0,1,4-8.12,20.25,20.25,0,0,1,6.54-5.79,17.72,17.72,0,0,1,8.77-2.15,15.22,15.22,0,0,1,5.22.79,25.39,25.39,0,0,1,4.34,2.11V371.76a2.67,2.67,0,0,1,.31-1.53c.2-.26.66-.4,1.36-.4h4.48a2.27,2.27,0,0,1,1.36.31c.26.21.39.69.39,1.45Zm-7.9-29.39a16.07,16.07,0,0,0-3.64-2.37,11.3,11.3,0,0,0-4.78-.88,11.54,11.54,0,0,0-5.53,1.36,13.38,13.38,0,0,0-4.43,3.9,19,19,0,0,0-2.89,6,25.55,25.55,0,0,0-1,7.28q0,8.95,4,14a12.73,12.73,0,0,0,10.49,5,11.37,11.37,0,0,0,4.3-.66,5.16,5.16,0,0,0,2.32-1.71,5.63,5.63,0,0,0,1-2.15,12,12,0,0,0,.22-2.32V398.26Z" transform="translate(-236 -108.78)"/><path class="cls-4" d="M1443.23,422.87a24.19,24.19,0,0,1-3.9,7.72A19.72,19.72,0,0,1,1433,436a17.33,17.33,0,0,1-8.38,2,18.32,18.32,0,0,1-8.56-2,18.88,18.88,0,0,1-6.4-5.35,24.12,24.12,0,0,1-3.9-7.63,29.85,29.85,0,0,1,0-17.68,24.35,24.35,0,0,1,4-7.67,19.17,19.17,0,0,1,6.36-5.31,18,18,0,0,1,8.38-1.93,17.27,17.27,0,0,1,8.69,2.15,19.38,19.38,0,0,1,6.27,5.66,25.9,25.9,0,0,1,3.73,7.63,28,28,0,0,1,0,17Zm-10.92-22.81q-3.55-4.7-8.29-4.7-5.18,0-8.29,4.91t-3.12,12.81q0,8.87,3.69,14.22t8.68,5.35q4.91,0,8.08-5t3.16-14.26Q1435.86,404.75,1432.31,400.06Z" transform="translate(-236 -108.78)"/><path class="cls-4" d="M1487.89,435.19a2.88,2.88,0,0,1-.22,1.18,1,1,0,0,1-.83.57H1482a2.65,2.65,0,0,1-1.53-.31c-.26-.2-.4-.69-.4-1.45V405.72a28.34,28.34,0,0,0-.22-3.82,8.57,8.57,0,0,0-1.18-3.25,6.88,6.88,0,0,0-3.11-2.63,13.76,13.76,0,0,0-5.75-1,14,14,0,0,0-5.26.83,6.28,6.28,0,0,0-2.89,2.11,6.44,6.44,0,0,0-1.1,2.41,12.78,12.78,0,0,0-.22,2.46v32.38c0,.76-.13,1.25-.39,1.45a2.48,2.48,0,0,1-1.45.31h-4.3a1.36,1.36,0,0,1-1.67-1.67V399.92a9,9,0,0,1,.7-4,6,6,0,0,1,2.81-2.41,22.23,22.23,0,0,1,4.43-1.72,32.55,32.55,0,0,1,4.52-.92c1.41-.18,2.62-.29,3.64-.36s1.85-.09,2.5-.09a25,25,0,0,1,9.39,1.45,11.45,11.45,0,0,1,5.09,3.64,10.27,10.27,0,0,1,1.93,4.39,32.21,32.21,0,0,1,.35,5Z" transform="translate(-236 -108.78)"/><path class="cls-4" d="M1502.54,412.82q.53,8.69,4.39,13.34a11.62,11.62,0,0,0,9.21,4.65,12,12,0,0,0,6.8-2,18.2,18.2,0,0,0,5.31-5.71,15.91,15.91,0,0,1,1.36-2.1,1.51,1.51,0,0,1,1.18-.44,1.93,1.93,0,0,1,1.18.44,2,2,0,0,1,.57,1.66,12.16,12.16,0,0,1-.92,3.64,20.61,20.61,0,0,1-3,5.22,17.12,17.12,0,0,1-5.49,4.6A16.67,16.67,0,0,1,1515,438a20.68,20.68,0,0,1-4.34-.48,16.9,16.9,0,0,1-4.43-1.67,18.09,18.09,0,0,1-4.17-3.16,17.9,17.9,0,0,1-3.38-4.87,22,22,0,0,1-2.19-6.4,40.42,40.42,0,0,1-.61-7.11,37.07,37.07,0,0,1,.79-8.07,23.29,23.29,0,0,1,2.19-6.06,19.62,19.62,0,0,1,1.67-2.67,19,19,0,0,1,3-3.12,16.53,16.53,0,0,1,4.87-2.81,18.39,18.39,0,0,1,6.71-1.14,17.27,17.27,0,0,1,8.21,1.8,14.8,14.8,0,0,1,5.22,4.38,18.23,18.23,0,0,1,2.63,5.14,15,15,0,0,1,.79,4.3,2.64,2.64,0,0,1-.66,2.11,3.78,3.78,0,0,1-1.8.7h-.09Zm21-7.55a11.15,11.15,0,0,0-3-7,8.48,8.48,0,0,0-6.36-2.81,9.8,9.8,0,0,0-8,3.51,18,18,0,0,0-3.6,9.56Z" transform="translate(-236 -108.78)"/><path class="cls-4" d="M1557.56,411.33l.18.09a43.91,43.91,0,0,1,4,2.15,17.58,17.58,0,0,1,3.12,2.5,11.94,11.94,0,0,1,2.46,3.68,12.53,12.53,0,0,1,1,5.09,13.69,13.69,0,0,1-1.1,5.4,12.26,12.26,0,0,1-3,4.34,11.83,11.83,0,0,1-5.18,2.77,23.9,23.9,0,0,1-5.44.65,20.56,20.56,0,0,1-7.1-1.1,13.83,13.83,0,0,1-4.74-2.72,10.94,10.94,0,0,1-2.54-3.29,6.83,6.83,0,0,1-.79-2.81,3.6,3.6,0,0,1,3.6-3.77,3.23,3.23,0,0,1,2.06.66,6.38,6.38,0,0,1,1.45,1.62c.29.47.67,1.14,1.14,2a11.48,11.48,0,0,0,2.89,3.16,7.69,7.69,0,0,0,4.65,1.23,6.34,6.34,0,0,0,5-2,6.82,6.82,0,0,0,1.75-4.69,6.94,6.94,0,0,0-2.15-5.44,25.08,25.08,0,0,0-6.1-3.78l-.18-.09q-3.69-1.75-5.7-2.89a22.48,22.48,0,0,1-3.78-2.68,10.91,10.91,0,0,1-2.76-3.73,12,12,0,0,1-1-5.09,11.69,11.69,0,0,1,3.6-8.64q3.6-3.55,10.35-3.55a18.65,18.65,0,0,1,6.14.92,13.15,13.15,0,0,1,4.3,2.37,10.52,10.52,0,0,1,2.46,2.94,5.75,5.75,0,0,1,.79,2.63,3.26,3.26,0,0,1-.92,2.41,3.14,3.14,0,0,1-2.33.92,3.22,3.22,0,0,1-2.28-.74,8.74,8.74,0,0,1-1.58-2.24l-.09-.26a13.06,13.06,0,0,0-2.59-3.2,7.07,7.07,0,0,0-9,.75,6.74,6.74,0,0,0-1.66,4.39,6.33,6.33,0,0,0,2,5,20.39,20.39,0,0,0,5.39,3.24Z" transform="translate(-236 -108.78)"/><path class="cls-4" d="M1584.27,382.25a4.39,4.39,0,0,1-3.47,1.45,4.58,4.58,0,0,1-3.47-1.32,4.77,4.77,0,0,1,.09-6.58,4.76,4.76,0,0,1,3.47-1.32,4.62,4.62,0,0,1,3.2,1.23,4.36,4.36,0,0,1,1.45,3.16A5,5,0,0,1,1584.27,382.25Zm.39,53.12c0,.71-.12,1.14-.35,1.32a2.55,2.55,0,0,1-1.41.26h-4.73q-.88,0-1.1-.31a2.4,2.4,0,0,1-.22-1.27v-42.2a2.7,2.7,0,0,1,.22-1.32c.14-.23.57-.35,1.27-.35h4.56a2.28,2.28,0,0,1,1.41.3,1.87,1.87,0,0,1,.35,1.36Z" transform="translate(-236 -108.78)"/><path class="cls-4" d="M1623.8,427.74a14.73,14.73,0,0,1-.79,5,6.16,6.16,0,0,1-3,2.94,18.3,18.3,0,0,1-5.7,1.8,41,41,0,0,1-6.67.57,34.21,34.21,0,0,1-4-.26,18.16,18.16,0,0,1-4.87-1.4,11.16,11.16,0,0,1-4.56-3.64,10.73,10.73,0,0,1-1.89-6.62,11.33,11.33,0,0,1,1.67-6.27,13.75,13.75,0,0,1,4.73-4.39,39.93,39.93,0,0,1,6.93-3.16q3.86-1.36,10.53-3.29v-4.48q0-1.84-.13-3.29a9.18,9.18,0,0,0-.75-2.85,5.36,5.36,0,0,0-2-2.33,6.59,6.59,0,0,0-3.73-.92,7.65,7.65,0,0,0-3.07.57,6.09,6.09,0,0,0-2.15,1.49,8.85,8.85,0,0,0-1.27,1.75c-.29.56-.58,1.18-.88,1.89l-.09.09a8.29,8.29,0,0,1-1.41,2.76,3.06,3.06,0,0,1-2.46.92,3.74,3.74,0,0,1-2.37-.92,3.34,3.34,0,0,1-1.14-2.76,7.12,7.12,0,0,1,1.18-3.82,12,12,0,0,1,3.29-3.38,19.59,19.59,0,0,1,11.49-3.25,15.72,15.72,0,0,1,7.2,1.41,9.28,9.28,0,0,1,4,3.55,12.74,12.74,0,0,1,1.58,4.3,28.83,28.83,0,0,1,.36,4.69v23.34Zm-7.64-14.65q-4.74,1.5-7.19,2.42a20.94,20.94,0,0,0-4.3,2.15q-4.39,2.72-4.39,7.28a10.93,10.93,0,0,0,.22,2,8.88,8.88,0,0,0,1.05,2.68,7.08,7.08,0,0,0,2.72,2.59,11.9,11.9,0,0,0,8.78.48,4.67,4.67,0,0,0,2.11-1.58,5,5,0,0,0,.83-2,12.91,12.91,0,0,0,.18-2.24Z" transform="translate(-236 -108.78)"/><rect class="cls-4" x="671.46" y="297.03" width="116.43" height="4.12"/><rect class="cls-4" x="1432.37" y="297.03" width="111.54" height="4.12"/></svg>